<svg version="1.2" xmlns="http://www.w3.org/2000/svg" viewBox="0 0 842 588" width="1000" height="698">
	<title>Blueprint_white-svg</title>
	<style>
		.s0 { fill: #000000 } 
		.s1 { fill: none;stroke: #ffffff;stroke-width: .8 } 
		.s2 { fill: none;stroke: #ffffff;stroke-width: .9 } 
		.s3 { opacity: .2;fill: none;stroke: #ffffff;stroke-width: .8;stroke-dasharray: 1,8 } 
	</style>
	<g id="Layer">
		<g id="Camada-1">
			<path id="rect4149" class="s0" d="m-1.1-3h843v595.1h-843z"/>
			<g id="g4295" style="opacity: .2">
				<g id="g4243">
					<path id="path4147" fill-rule="evenodd" class="s1" d="m20.1-0.8v594.2"/>
					<path id="path4155" fill-rule="evenodd" class="s1" d="m81.3-0.8v594.2"/>
					<path id="path4157" fill-rule="evenodd" class="s1" d="m142.4-0.8v594.2"/>
					<path id="path4159" fill-rule="evenodd" class="s1" d="m203.6-0.8v594.2"/>
					<path id="path4161" fill-rule="evenodd" class="s1" d="m264.8-0.8v594.2"/>
					<path id="path4163" fill-rule="evenodd" class="s1" d="m325.9-0.8v594.2"/>
					<path id="path4165" fill-rule="evenodd" class="s1" d="m387.1-0.8v594.2"/>
					<path id="path4179" fill-rule="evenodd" class="s1" d="m448.3-0.8v594.2"/>
					<path id="path4181" fill-rule="evenodd" class="s1" d="m509.5-0.8v594.2"/>
					<path id="path4183" fill-rule="evenodd" class="s1" d="m570.6-0.8v594.2"/>
					<path id="path4185" fill-rule="evenodd" class="s1" d="m631.8-0.8v594.2"/>
					<path id="path4187" fill-rule="evenodd" class="s1" d="m693-0.8v594.2"/>
					<path id="path4189" fill-rule="evenodd" class="s1" d="m754.1-0.8v594.2"/>
					<path id="path4191" fill-rule="evenodd" class="s1" d="m815.3-0.8v594.2"/>
					<path id="path4193" fill-rule="evenodd" class="s2" d="m-3.2 34.4h844.7"/>
					<path id="path4197" fill-rule="evenodd" class="s2" d="m-3.2 94.2h844.7"/>
					<path id="path4199" fill-rule="evenodd" class="s2" d="m-3.2 572h844.7"/>
					<path id="path4201" fill-rule="evenodd" class="s2" d="m-3.2 512.3h844.7"/>
					<path id="path4203" fill-rule="evenodd" class="s2" d="m-3.2 452.6h844.7"/>
					<path id="path4205" fill-rule="evenodd" class="s2" d="m-3.2 392.8h844.7"/>
					<path id="path4207" fill-rule="evenodd" class="s2" d="m-3.2 333.1h844.7"/>
					<path id="path4209" fill-rule="evenodd" class="s2" d="m-3.2 273.4h844.7"/>
					<path id="path4211" fill-rule="evenodd" class="s2" d="m-3.2 153.9h844.7"/>
					<path id="path4213" fill-rule="evenodd" class="s2" d="m-3.2 213.6h844.7"/>
				</g>
			</g>
			<path id="path4241" fill-rule="evenodd" class="s3" d="m8-2.4v594.2"/>
			<path id="path4322" fill-rule="evenodd" class="s3" d="m22-2.4v594.2"/>
			<path id="path4324" fill-rule="evenodd" class="s3" d="m36.1-2.4v594.2"/>
			<path id="path4326" fill-rule="evenodd" class="s3" d="m50.1-2.4v594.2"/>
			<path id="path4328" fill-rule="evenodd" class="s3" d="m78.2-2.4v594.2"/>
			<path id="path4330" fill-rule="evenodd" class="s3" d="m92.2-2.4v594.2"/>
			<path id="path4332" fill-rule="evenodd" class="s3" d="m120.3-2.4v594.2"/>
			<path id="path4334" fill-rule="evenodd" class="s3" d="m134.4-2.4v594.2"/>
			<path id="path4336" fill-rule="evenodd" class="s3" d="m162.5-2.4v594.2"/>
			<path id="path4338" fill-rule="evenodd" class="s3" d="m176.5-2.4v594.2"/>
			<path id="path4340" fill-rule="evenodd" class="s3" d="m190.6-2.4v594.2"/>
			<path id="path4342" fill-rule="evenodd" class="s3" d="m204.6-2.4v594.2"/>
			<path id="path4344" fill-rule="evenodd" class="s3" d="m218.7-2.4v594.2"/>
			<path id="path4348" fill-rule="evenodd" class="s3" d="m64.2-2.4v594.2"/>
			<path id="path4350" fill-rule="evenodd" class="s3" d="m106.3-2.4v594.2"/>
			<path id="path4352" fill-rule="evenodd" class="s3" d="m148.4-2.4v594.2"/>
			<path id="path4354" fill-rule="evenodd" class="s3" d="m232.7-2.4v594.2"/>
			<path id="path4356" fill-rule="evenodd" class="s3" d="m246.8-2.4v594.2"/>
			<path id="path4358" fill-rule="evenodd" class="s3" d="m260.8-2.4v594.2"/>
			<path id="path4360" fill-rule="evenodd" class="s3" d="m274.9-2.4v594.2"/>
			<path id="path4362" fill-rule="evenodd" class="s3" d="m288.9-2.4v594.2"/>
			<path id="path4364" fill-rule="evenodd" class="s3" d="m303-2.4v594.2"/>
			<path id="path4366" fill-rule="evenodd" class="s3" d="m317-2.4v594.2"/>
			<path id="path4368" fill-rule="evenodd" class="s3" d="m331.1-2.4v594.2"/>
			<path id="path4370" fill-rule="evenodd" class="s3" d="m345.1-2.4v594.2"/>
			<path id="path4372" fill-rule="evenodd" class="s3" d="m359.1-2.4v594.2"/>
			<path id="path4374" fill-rule="evenodd" class="s3" d="m373.2-2.4v594.2"/>
			<path id="path4376" fill-rule="evenodd" class="s3" d="m401.3-2.4v594.2"/>
			<path id="path4378" fill-rule="evenodd" class="s3" d="m415.3-2.4v594.2"/>
			<path id="path4380" fill-rule="evenodd" class="s3" d="m443.4-2.4v594.2"/>
			<path id="path4382" fill-rule="evenodd" class="s3" d="m457.5-2.4v594.2"/>
			<path id="path4384" fill-rule="evenodd" class="s3" d="m485.6-2.4v594.2"/>
			<path id="path4386" fill-rule="evenodd" class="s3" d="m499.6-2.4v594.2"/>
			<path id="path4388" fill-rule="evenodd" class="s3" d="m513.7-2.4v594.2"/>
			<path id="path4390" fill-rule="evenodd" class="s3" d="m527.7-2.4v594.2"/>
			<path id="path4392" fill-rule="evenodd" class="s3" d="m541.8-2.4v594.2"/>
			<path id="path4394" fill-rule="evenodd" class="s3" d="m387.2-2.4v594.2"/>
			<path id="path4396" fill-rule="evenodd" class="s3" d="m429.4-2.4v594.2"/>
			<path id="path4398" fill-rule="evenodd" class="s3" d="m471.5-2.4v594.2"/>
			<path id="path4400" fill-rule="evenodd" class="s3" d="m555.8-2.4v594.2"/>
			<path id="path4402" fill-rule="evenodd" class="s3" d="m569.9-2.4v594.2"/>
			<path id="path4404" fill-rule="evenodd" class="s3" d="m583.9-2.4v594.2"/>
			<path id="path4406" fill-rule="evenodd" class="s3" d="m598-2.4v594.2"/>
			<path id="path4408" fill-rule="evenodd" class="s3" d="m612-2.4v594.2"/>
			<path id="path4410" fill-rule="evenodd" class="s3" d="m626.1-2.4v594.2"/>
			<path id="path4412" fill-rule="evenodd" class="s3" d="m640.1-2.4v594.2"/>
			<path id="path4414" fill-rule="evenodd" class="s3" d="m654.1-2.4v594.2"/>
			<path id="path4416" fill-rule="evenodd" class="s3" d="m668.2-2.4v594.2"/>
			<path id="path4418" fill-rule="evenodd" class="s3" d="m682.2-2.4v594.2"/>
			<path id="path4420" fill-rule="evenodd" class="s3" d="m696.3-2.4v594.2"/>
			<path id="path4422" fill-rule="evenodd" class="s3" d="m710.3-2.4v594.2"/>
			<path id="path4424" fill-rule="evenodd" class="s3" d="m724.4-2.4v594.2"/>
			<path id="path4426" fill-rule="evenodd" class="s3" d="m738.4-2.4v594.2"/>
			<path id="path4428" fill-rule="evenodd" class="s3" d="m752.5-2.4v594.2"/>
			<path id="path4430" fill-rule="evenodd" class="s3" d="m766.5-2.4v594.2"/>
			<path id="path4432" fill-rule="evenodd" class="s3" d="m780.6-2.4v594.2"/>
			<path id="path4434" fill-rule="evenodd" class="s3" d="m794.6-2.4v594.2"/>
			<path id="path4436" fill-rule="evenodd" class="s3" d="m808.7-2.4v594.2"/>
			<path id="path4438" fill-rule="evenodd" class="s3" d="m822.7-2.4v594.2"/>
			<path id="path4440" fill-rule="evenodd" class="s3" d="m836.8-2.4v594.2"/>
		</g>
	</g>
</svg>