<?xml version="1.0" encoding="UTF-8" standalone="no"?><!DOCTYPE svg PUBLIC "-//W3C//DTD SVG 1.1//EN" "http://www.w3.org/Graphics/SVG/1.1/DTD/svg11.dtd"><svg width="100%" height="100%" viewBox="0 0 745 745" version="1.1" xmlns="http://www.w3.org/2000/svg" xmlns:xlink="http://www.w3.org/1999/xlink" xml:space="preserve" xmlns:serif="http://www.serif.com/" style="fill-rule:evenodd;clip-rule:evenodd;stroke-linejoin:round;stroke-miterlimit:2;"><path d="M154.322,648.15c-26.233,0 -44.883,-11.706 -55.944,-35.111c-11.056,-23.406 -8.356,-45.139 8.105,-65.2l171.295,-208.333l-0,-185.184l-30.867,0c-8.744,0 -16.072,-2.961 -21.989,-8.872c-5.916,-5.917 -8.872,-13.25 -8.872,-21.994c0,-8.745 2.956,-16.073 8.872,-21.989c5.917,-5.917 13.245,-8.873 21.989,-8.873l246.917,0c8.744,0 16.072,2.956 21.989,8.873c5.916,5.916 8.872,13.244 8.872,21.989c-0,8.744 -2.956,16.077 -8.872,21.994c-5.917,5.911 -13.245,8.872 -21.989,8.872l-30.867,0l0,185.184l171.3,208.333c16.461,20.061 19.161,41.794 8.1,65.2c-11.061,23.405 -29.705,35.111 -55.939,35.111l-432.1,0Zm61.728,-92.594l308.639,-0l-104.933,-123.456l-98.767,0l-104.939,123.456Zm-61.728,30.866l432.1,0l-185.189,-225.311l0,-206.789l-61.727,0l-0,206.789l-185.184,225.311Z" style="fill:#fff;fill-rule:nonzero;"/></svg>