<svg version="1.2" xmlns="http://www.w3.org/2000/svg" viewBox="0 0 1024 1024" width="1024" height="1024">
	<title>Nový projekt</title>
	<style>
		.s0 { fill: #000000 } 
		.s1 { fill: #ffffff } 
		.s2 { opacity: .1;fill: #ffffff } 
	</style>
	<path id="Tvar 1" class="s0" d="m512 1012.1c-276.5 0-500.1-223.6-500.1-500.1 0-276.5 223.6-500.1 500.1-500.1 276.5 0 500.1 223.6 500.1 500.1 0 276.5-223.6 500.1-500.1 500.1z"/>
	<g id="Složka 1">
		<path id="Tvar 2" class="s1" d="m338 247h89.5v530.8h-89.5z"/>
		<path id="Tvar 3" class="s1" d="m604.8 479.6c-40.8 0-73.8-33-73.8-73.8 0-40.8 33-73.8 73.8-73.8 40.8 0 73.8 33 73.8 73.8 0 40.8-33 73.8-73.8 73.8z"/>
		<path id="Tvar 3 copy" class="s2" d="m743.8 360.6c-40.8 0-73.8-33-73.8-73.8 0-40.8 33-73.8 73.8-73.8 40.8 0 73.8 33 73.8 73.8 0 40.8-33 73.8-73.8 73.8z"/>
		<path id="Tvar 3 copy 2" class="s2" d="m866.8 236.6c-40.8 0-73.8-33-73.8-73.8 0-40.8 33-73.8 73.8-73.8 40.8 0 73.8 33 73.8 73.8 0 40.8-33 73.8-73.8 73.8z"/>
		<path id="Tvar 3 copy 4" class="s2" d="m461.8 595.6c-40.8 0-73.8-33-73.8-73.8 0-40.8 33-73.8 73.8-73.8 40.8 0 73.8 33 73.8 73.8 0 40.8-33 73.8-73.8 73.8z"/>
		<path id="Tvar 3 copy 5" class="s2" d="m598.8 739.6c-40.8 0-73.8-33-73.8-73.8 0-40.8 33-73.8 73.8-73.8 40.8 0 73.8 33 73.8 73.8 0 40.8-33 73.8-73.8 73.8z"/>
		<path id="Tvar 3 copy 6" class="s2" d="m739.8 867.6c-40.8 0-73.8-33-73.8-73.8 0-40.8 33-73.8 73.8-73.8 40.8 0 73.8 33 73.8 73.8 0 40.8-33 73.8-73.8 73.8z"/>
		<path id="Tvar 3 copy 7" class="s2" d="m865.8 992.6c-40.8 0-73.8-33-73.8-73.8 0-40.8 33-73.8 73.8-73.8 40.8 0 73.8 33 73.8 73.8 0 40.8-33 73.8-73.8 73.8z"/>
	</g>
</svg>